<svg aria-hidden="true" style="position:absolute;width:0;height:0" xmlns="http://www.w3.org/2000/svg" overflow="hidden"><defs><symbol id="icon-telegram" viewBox="0 0 36 32"><path d="M.623 14.887l8.174 3.048 3.187 10.253c.139.693.97.831 1.524.416l4.572-3.741c.416-.416 1.108-.416 1.663 0l8.174 5.957c.554.416 1.386.139 1.524-.554l6.096-29.095c.139-.693-.554-1.385-1.247-1.108L.623 13.087c-.831.277-.831 1.524 0 1.801zm10.946 1.524l16.072-9.837c.277-.139.554.277.277.416L14.756 19.321c-.416.416-.831.97-.831 1.663l-.416 3.325c0 .416-.693.554-.831 0l-1.663-6.096c-.416-.693-.139-1.524.554-1.801z"/></symbol><symbol id="icon-facebook" viewBox="0 0 32 32"><path d="M32 5.306C32 2.487 29.513 0 26.694 0H5.305C2.486 0-.001 2.487-.001 5.306v21.389c0 2.819 2.487 5.306 5.306 5.306h10.777V19.897h-3.979v-5.306h3.979v-2.155c0-3.648 2.653-6.798 5.969-6.798h4.311v5.306h-4.311c-.497 0-.995.497-.995 1.492v2.155h5.306v5.306h-5.306v12.104h5.637c2.819 0 5.306-2.487 5.306-5.306V5.306z"/></symbol><symbol id="icon-insta" viewBox="0 0 32 32"><path d="M27.446 0H4.554C1.969 0 0 1.969 0 4.554v22.892C0 30.03 1.969 32 4.554 32h22.892C30.03 32 32 30.031 32 27.446V4.554C32 1.969 30.031 0 27.446 0zM16 25.6c5.292 0 9.6-4.185 9.6-9.231 0-.862-.123-1.846-.369-2.585h2.708V26.83c0 .616-.492 1.231-1.231 1.231H5.293c-.615 0-1.231-.492-1.231-1.231V13.661h2.831a9.377 9.377 0 00-.369 2.585c-.123 5.169 4.185 9.354 9.477 9.354zm0-3.692c-3.446 0-6.154-2.708-6.154-6.031S12.554 9.846 16 9.846c3.446 0 6.154 2.708 6.154 6.031 0 3.446-2.708 6.031-6.154 6.031zm11.815-13.17c0 .738-.615 1.354-1.354 1.354h-3.446a1.366 1.366 0 01-1.354-1.354V5.415c0-.738.615-1.354 1.354-1.354h3.446c.738 0 1.354.615 1.354 1.354v3.323z"/></symbol><symbol id="icon-vk" viewBox="0 0 52 32"><path d="M51.215 27.361c0-.205-.205-.205-.205-.409-.817-1.635-2.657-3.679-5.109-5.927-1.226-1.022-1.84-1.839-2.248-2.248-.613-.817-.613-1.431-.409-2.248.204-.613 1.022-1.635 2.452-3.474.817-1.022 1.226-1.635 1.839-2.248 3.066-4.087 4.496-6.744 4.087-7.97l-.204-.204c-.204-.204-.409-.409-.817-.409-.409-.204-1.022-.204-1.635 0H39.769l-.205.204c-.204.204-.204.204-.204.409-.817 2.248-1.839 4.087-2.861 6.131-.613 1.022-1.226 2.044-1.839 2.861s-1.022 1.431-1.431 1.839c-.409.409-.817.613-1.022 1.022-.204.204-.613.409-.613.204-.205 0-.409 0-.409-.204l-.613-.613c-.204-.204-.204-.613-.409-1.022v-1.022-1.226-1.226-2.248-1.839-1.431-1.226c0-.204-.204-.613-.204-.817l-.613-.613c-.204-.204-.613-.204-.817-.409C27.507.794 26.281.589 24.85.589c-3.27 0-5.518.204-6.335.613-.409.204-.817.409-1.022.817-.409.409-.409.613-.204.613 1.022.204 1.839.613 2.248 1.226l.204.409c.204.204.204.613.409 1.226s.204 1.226.204 2.044v3.27c0 1.022-.204 1.635-.204 2.248s-.204 1.022-.409 1.226c-.204.409-.204.613-.409.613 0 0 0 .204-.204.204s-.409.204-.817.204c-.204 0-.613-.204-.817-.409a2.462 2.462 0 01-1.022-1.022c-.409-.409-.817-1.022-1.226-1.839s-1.022-1.635-1.431-2.861l-.409-.817c-.204-.409-.613-1.226-1.022-2.248s-.817-1.839-1.226-2.861c-.204-.409-.409-.613-.613-.817h-.204s-.204-.204-.409-.204-.409-.204-.613-.204H1.962c-.817 0-1.226.204-1.431.409l-.204.204v.409c0 .205 0 .409.204.817 1.022 2.452 2.248 4.905 3.474 7.357 1.226 2.248 2.452 4.292 3.27 5.722 1.022 1.431 1.839 2.861 2.861 4.087s1.635 2.044 1.839 2.452l.817.817.613.613c.409.409 1.022 1.022 1.839 1.635s1.839 1.226 2.861 1.839c1.022.613 2.248 1.022 3.474 1.43 1.431.409 2.657.613 3.883.409h3.065c.613 0 1.022-.204 1.431-.613l.204-.204c0-.204.204-.204.204-.409v-.817c0-.817 0-1.431.204-2.044s.205-1.022.409-1.43c.204-.409.409-.613.613-.818l.409-.409h.204c.409-.204 1.022 0 1.431.409.613.409 1.226 1.022 1.635 1.635s1.022 1.226 1.839 2.044 1.43 1.43 1.839 1.635l.613.409c.409.204.817.409 1.431.613s1.022.204 1.431.204l6.948-.204c.613 0 1.226-.204 1.635-.409s.613-.409.613-.817v-.817c-.409-.409-.409-.613-.409-.817z"/></symbol></defs></svg>