<svg aria-hidden="true" style="position:absolute;width:0;height:0" xmlns="http://www.w3.org/2000/svg" overflow="hidden"><defs><symbol id="icon-people" viewBox="0 0 32 32"><path d="M16 .889C7.659.889.889 7.659.889 16S7.659 31.111 16 31.111 31.111 24.341 31.111 16C31.111 7.659 24.341.889 16 .889zm0 4.533c2.508 0 4.533 2.025 4.533 4.533S18.508 14.488 16 14.488c-2.508 0-4.533-2.025-4.533-4.533S13.492 5.422 16 5.422zm0 21.458a10.881 10.881 0 01-9.067-4.866c.045-3.007 6.044-4.654 9.067-4.654 3.007 0 9.021 1.647 9.067 4.654A10.88 10.88 0 0116 26.88z"/></symbol></defs></svg>