<svg width="68" height="68" fill="none" xmlns="http://www.w3.org/2000/svg"><path d="M51.266 30.547a2.656 2.656 0 100-5.313 2.656 2.656 0 000 5.313zM39.71 30.547a2.656 2.656 0 100-5.313 2.656 2.656 0 000 5.313zM16.602 53.656a2.656 2.656 0 100-5.312 2.656 2.656 0 000 5.312zM16.602 30.547a2.656 2.656 0 100-5.313 2.656 2.656 0 000 5.313zM16.602 42.102a2.656 2.656 0 100-5.313 2.656 2.656 0 000 5.313zM28.156 42.102a2.656 2.656 0 100-5.313 2.656 2.656 0 000 5.313zM28.156 30.547a2.656 2.656 0 100-5.313 2.656 2.656 0 000 5.313zM28.156 53.656a2.656 2.656 0 100-5.312 2.656 2.656 0 000 5.312z" fill="#000"/><rect x="39.148" y="38.519" width="13" height="13" rx="4" stroke="#000" stroke-width="4"/><rect x="2" y="7.037" width="64" height="58.963" rx="14" stroke="#000" stroke-width="4"/><path stroke="#000" stroke-width="4" stroke-linecap="round" d="M15.852 2v9.852M34.741 2v9.852M52.37 2v9.852"/></svg>