<svg aria-hidden="true" style="position: absolute; width: 0; height: 0; overflow: hidden;" version="1.1" xmlns="http://www.w3.org/2000/svg" xmlns:xlink="http://www.w3.org/1999/xlink">
<defs>
<symbol id="icon-people" viewBox="0 0 32 32">
<path d="M16 0.889c-8.341 0-15.111 6.77-15.111 15.111s6.77 15.111 15.111 15.111 15.111-6.77 15.111-15.111c0-8.341-6.77-15.111-15.111-15.111zM16 5.422c2.508 0 4.533 2.025 4.533 4.533s-2.025 4.533-4.533 4.533c-2.508 0-4.533-2.025-4.533-4.533s2.025-4.533 4.533-4.533zM16 26.88c-3.778 0-7.117-1.934-9.067-4.866 0.045-3.007 6.044-4.654 9.067-4.654 3.007 0 9.021 1.647 9.067 4.654-1.949 2.932-5.289 4.866-9.067 4.866z"></path>
</symbol>
</defs>
</svg>
