<svg aria-hidden="true" style="position: absolute; width: 0; height: 0; overflow: hidden;" version="1.1" xmlns="http://www.w3.org/2000/svg" xmlns:xlink="http://www.w3.org/1999/xlink">
<defs>
<symbol id="icon-telegram" viewBox="0 0 36 32">
<path fill="" d="M0.623 14.887l8.174 3.048 3.187 10.253c0.139 0.693 0.97 0.831 1.524 0.416l4.572-3.741c0.416-0.416 1.108-0.416 1.663 0l8.174 5.957c0.554 0.416 1.386 0.139 1.524-0.554l6.096-29.095c0.139-0.693-0.554-1.385-1.247-1.108l-33.667 13.024c-0.831 0.277-0.831 1.524 0 1.801zM11.569 16.411l16.072-9.837c0.277-0.139 0.554 0.277 0.277 0.416l-13.162 12.331c-0.416 0.416-0.831 0.97-0.831 1.663l-0.416 3.325c0 0.416-0.693 0.554-0.831 0l-1.663-6.096c-0.416-0.693-0.139-1.524 0.554-1.801z"></path>
</symbol>
<symbol id="icon-facebook" viewBox="0 0 32 32">
<path fill="" d="M32 5.306c0-2.819-2.487-5.306-5.306-5.306h-21.389c-2.819 0-5.306 2.487-5.306 5.306v21.389c0 2.819 2.487 5.306 5.306 5.306h10.777v-12.104h-3.979v-5.306h3.979v-2.155c0-3.648 2.653-6.798 5.969-6.798h4.311v5.306h-4.311c-0.497 0-0.995 0.497-0.995 1.492v2.155h5.306v5.306h-5.306v12.104h5.637c2.819 0 5.306-2.487 5.306-5.306v-21.389z"></path>
</symbol>
<symbol id="icon-insta" viewBox="0 0 32 32">
<path fill="" d="M27.446 0h-22.892c-2.585 0-4.554 1.969-4.554 4.554v22.892c0 2.584 1.969 4.554 4.554 4.554h22.892c2.584 0 4.554-1.969 4.554-4.554v-22.892c0-2.585-1.969-4.554-4.554-4.554zM16 25.6c5.292 0 9.6-4.185 9.6-9.231 0-0.862-0.123-1.846-0.369-2.585h2.708v13.046c0 0.616-0.492 1.231-1.231 1.231h-21.415c-0.615 0-1.231-0.492-1.231-1.231v-13.169h2.831c-0.246 0.862-0.369 1.723-0.369 2.585-0.123 5.169 4.185 9.354 9.477 9.354zM16 21.908c-3.446 0-6.154-2.708-6.154-6.031s2.708-6.031 6.154-6.031c3.446 0 6.154 2.708 6.154 6.031 0 3.446-2.708 6.031-6.154 6.031zM27.815 8.738c0 0.738-0.615 1.354-1.354 1.354h-3.446c-0.738 0-1.354-0.615-1.354-1.354v-3.323c0-0.738 0.615-1.354 1.354-1.354h3.446c0.738 0 1.354 0.615 1.354 1.354v3.323z"></path>
</symbol>
<symbol id="icon-vk" viewBox="0 0 52 32">
<path fill="" d="M51.215 27.361c0-0.205-0.205-0.205-0.205-0.409-0.817-1.635-2.657-3.679-5.109-5.927-1.226-1.022-1.84-1.839-2.248-2.248-0.613-0.817-0.613-1.431-0.409-2.248 0.204-0.613 1.022-1.635 2.452-3.474 0.817-1.022 1.226-1.635 1.839-2.248 3.066-4.087 4.496-6.744 4.087-7.97l-0.204-0.204c-0.204-0.204-0.409-0.409-0.817-0.409-0.409-0.204-1.022-0.204-1.635 0h-7.766c-0.204 0-0.204 0-0.613 0-0.205 0-0.409 0-0.409 0h-0.409l-0.205 0.204c-0.204 0.204-0.204 0.204-0.204 0.409-0.817 2.248-1.839 4.087-2.861 6.131-0.613 1.022-1.226 2.044-1.839 2.861s-1.022 1.431-1.431 1.839c-0.409 0.409-0.817 0.613-1.022 1.022-0.204 0.204-0.613 0.409-0.613 0.204-0.205 0-0.409 0-0.409-0.204-0.204-0.204-0.409-0.409-0.613-0.613s-0.204-0.613-0.409-1.022c0-0.409 0-0.817 0-1.022s0-0.817 0-1.226c0-0.613 0-1.022 0-1.226 0-0.613 0-1.431 0-2.248s0-1.431 0-1.839c0-0.409 0-1.022 0-1.431 0-0.613 0-1.022 0-1.226s-0.204-0.613-0.204-0.817c-0.204-0.204-0.409-0.409-0.613-0.613s-0.613-0.204-0.817-0.409c-1.022-0.204-2.248-0.409-3.679-0.409-3.27 0-5.518 0.204-6.335 0.613-0.409 0.204-0.817 0.409-1.022 0.817-0.409 0.409-0.409 0.613-0.204 0.613 1.022 0.204 1.839 0.613 2.248 1.226l0.204 0.409c0.204 0.204 0.204 0.613 0.409 1.226s0.204 1.226 0.204 2.044c0 1.226 0 2.452 0 3.27 0 1.022-0.204 1.635-0.204 2.248s-0.204 1.022-0.409 1.226c-0.204 0.409-0.204 0.613-0.409 0.613 0 0-0 0.204-0.204 0.204s-0.409 0.204-0.817 0.204c-0.204 0-0.613-0.204-0.817-0.409-0.409-0.204-0.817-0.613-1.022-1.022-0.409-0.409-0.817-1.022-1.226-1.839s-1.022-1.635-1.431-2.861l-0.409-0.817c-0.204-0.409-0.613-1.226-1.022-2.248s-0.817-1.839-1.226-2.861c-0.204-0.409-0.409-0.613-0.613-0.817h-0.204c0 0-0.204-0.204-0.409-0.204s-0.409-0.204-0.613-0.204h-7.357c-0.817 0-1.226 0.204-1.431 0.409l-0.204 0.204c0 0 0 0.204 0 0.409s0 0.409 0.204 0.817c1.022 2.452 2.248 4.905 3.474 7.357 1.226 2.248 2.452 4.292 3.27 5.722 1.022 1.431 1.839 2.861 2.861 4.087s1.635 2.044 1.839 2.452c0.409 0.409 0.613 0.613 0.817 0.817l0.613 0.613c0.409 0.409 1.022 1.022 1.839 1.635s1.839 1.226 2.861 1.839c1.022 0.613 2.248 1.022 3.474 1.43 1.431 0.409 2.657 0.613 3.883 0.409h3.065c0.613 0 1.022-0.204 1.431-0.613l0.204-0.204c0-0.204 0.204-0.204 0.204-0.409s0-0.409 0-0.817c0-0.817 0-1.431 0.204-2.044s0.205-1.022 0.409-1.43c0.204-0.409 0.409-0.613 0.613-0.818s0.409-0.409 0.409-0.409h0.204c0.409-0.204 1.022 0 1.431 0.409 0.613 0.409 1.226 1.022 1.635 1.635s1.022 1.226 1.839 2.044 1.43 1.43 1.839 1.635l0.613 0.409c0.409 0.204 0.817 0.409 1.431 0.613s1.022 0.204 1.431 0.204l6.948-0.204c0.613 0 1.226-0.204 1.635-0.409s0.613-0.409 0.613-0.817c0-0.204 0-0.613 0-0.817-0.409-0.409-0.409-0.613-0.409-0.817z"></path>
</symbol>
</defs>
</svg>
